<svg width="32" height="32" viewBox="0 0 32 32" fill="none" xmlns="http://www.w3.org/2000/svg">
<circle cx="16" cy="16" r="14" fill="#0FBA00"/>
<g clip-path="url(#clip0_1815_8469)">
<path d="M17.0726 7C17.7905 7 18.3729 7.58205 18.3729 8.3003C18.3729 9.01838 17.7905 9.60059 17.0726 9.60059C16.3544 9.60059 15.7723 9.01838 15.7723 8.3003C15.7723 7.58205 16.3544 7 17.0726 7Z" fill="white"/>
<path d="M10.383 17.5223C9.96703 17.256 9.41434 17.3772 9.14822 17.7932C8.88193 18.2086 9.00313 18.7619 9.41912 19.0278L11.9891 20.6738C12.3792 20.923 12.8951 20.8339 13.1783 20.4677L16.3219 16.4037L18.7635 19.5543L19.1211 23.895C19.1593 24.3619 19.5506 24.7154 20.0109 24.7154C20.0353 24.7154 20.0604 24.7142 20.0852 24.7125C20.5771 24.6719 20.9433 24.2404 20.9026 23.7482L20.5236 19.1435C20.5094 18.9708 20.4453 18.8062 20.3394 18.6692L18.3476 15.6555L18.5086 11.5646C18.5086 11.5646 18.5538 11.3291 18.5624 11.0394C18.8155 10.7429 19.1485 10.3283 19.5933 9.74467C20.2597 8.87044 20.8728 8.01493 20.8792 8.00643C21.0751 7.73252 21.0122 7.352 20.7384 7.15593C20.4649 6.96002 20.084 7.02306 19.888 7.29657C19.2214 8.22807 18.4453 9.25863 17.8802 9.95426C17.1623 9.87065 16.1505 9.86848 15.556 9.97988C15.3444 10.0197 15.2111 10.1111 15.1265 10.2164C15.1062 10.2376 15.0865 10.2597 15.0691 10.2845C14.0106 11.7631 12.6764 13.4921 12.3484 13.7332C12.0632 13.8878 11.9478 14.2408 12.0913 14.5356C12.1968 14.7525 12.4139 14.8788 12.6398 14.8788C12.7295 14.8788 12.8203 14.8591 12.9061 14.8172C13.0718 14.7364 13.3494 14.6014 14.7746 12.7326C14.8259 12.6653 14.8767 12.5984 14.9271 12.5318L14.8522 14.7882L14.866 14.7918L12.2649 18.7276L10.383 17.5223Z" fill="white"/>
<path d="M16.2802 22.1963C17.0546 22.1963 17.6821 22.8241 17.6821 23.5985C17.6821 24.3725 17.0546 25.0004 16.2802 25.0004C15.5061 25.0004 14.8783 24.3725 14.8783 23.5985C14.8783 22.8241 15.5061 22.1963 16.2802 22.1963Z" fill="white"/>
</g>
<defs>
<clipPath id="clip0_1815_8469">
<rect width="18" height="18" fill="white" transform="translate(6 7)"/>
</clipPath>
</defs>
</svg>
