<svg width="28" height="24" viewBox="0 0 28 24" fill="none" xmlns="http://www.w3.org/2000/svg">
<path d="M13.9941 22.9912L13.9941 22.9912L14 22.9943L14.0059 22.9912C14.2483 22.8629 17.5546 21.061 20.7852 18.2318C24.0684 15.3565 26.9997 11.6574 27 7.75055C26.9978 5.96086 26.2859 4.2451 25.0204 2.97959C23.7549 1.71408 22.0391 1.00217 20.2494 0.999999C17.9607 1.00016 16.0064 1.97945 14.7997 3.58667L14 4.65173L13.2003 3.58667C11.9936 1.97945 10.0393 1.00015 7.75055 0.999998C5.96086 1.00217 4.2451 1.71408 2.97959 2.97959C1.71394 4.24523 1.00202 5.96123 0.999999 7.75112C1.00056 11.6578 3.93174 15.3566 7.21476 18.2318C10.4454 21.061 13.7517 22.8629 13.9941 22.9912Z" stroke="white" stroke-width="2"/>
</svg>
