<svg width="20" height="20" viewBox="0 0 20 20" fill="none" xmlns="http://www.w3.org/2000/svg">
<g opacity="0.4">
<path fill-rule="evenodd" clip-rule="evenodd" d="M16.5404 4.87361C16.931 4.48309 16.931 3.84992 16.5404 3.4594C16.1499 3.06887 15.5168 3.06887 15.1262 3.4594L10 8.58562L4.87377 3.4594C4.48325 3.06887 3.85009 3.06887 3.45956 3.4594C3.06904 3.84992 3.06904 4.48309 3.45956 4.87361L8.58579 9.99984L3.45956 15.1261C3.06904 15.5166 3.06904 16.1498 3.45956 16.5403C3.85009 16.9308 4.48325 16.9308 4.87377 16.5403L10 11.4141L15.1262 16.5403C15.5168 16.9308 16.1499 16.9308 16.5404 16.5403C16.931 16.1498 16.931 15.5166 16.5404 15.1261L11.4142 9.99984L16.5404 4.87361Z" fill="white"/>
</g>
</svg>
