<svg width="33" height="32" viewBox="0 0 33 32" fill="none" xmlns="http://www.w3.org/2000/svg">
<path d="M24.5 1.33301H8.49998C6.73252 1.33512 5.03806 2.03818 3.78827 3.28797C2.53849 4.53775 1.83543 6.23221 1.83331 7.99967V18.6663C1.83525 20.2026 2.36677 21.6913 3.33827 22.8813C4.30977 24.0714 5.66186 24.8902 7.16665 25.1997V29.333C7.16661 29.5744 7.23211 29.8113 7.35615 30.0184C7.48019 30.2254 7.65812 30.395 7.87096 30.5088C8.0838 30.6227 8.32356 30.6767 8.56467 30.665C8.80578 30.6533 9.03918 30.5763 9.23998 30.4423L16.9 25.333H24.5C26.2674 25.3309 27.9619 24.6278 29.2117 23.378C30.4615 22.1283 31.1645 20.4338 31.1666 18.6663V7.99967C31.1645 6.23221 30.4615 4.53775 29.2117 3.28797C27.9619 2.03818 26.2674 1.33512 24.5 1.33301ZM21.8333 17.333H11.1666C10.813 17.333 10.4739 17.1925 10.2238 16.9425C9.97379 16.6924 9.83331 16.3533 9.83331 15.9997C9.83331 15.6461 9.97379 15.3069 10.2238 15.0569C10.4739 14.8068 10.813 14.6663 11.1666 14.6663H21.8333C22.1869 14.6663 22.5261 14.8068 22.7761 15.0569C23.0262 15.3069 23.1666 15.6461 23.1666 15.9997C23.1666 16.3533 23.0262 16.6924 22.7761 16.9425C22.5261 17.1925 22.1869 17.333 21.8333 17.333ZM24.5 11.9997H8.49998C8.14636 11.9997 7.80722 11.8592 7.55717 11.6091C7.30712 11.3591 7.16665 11.02 7.16665 10.6663C7.16665 10.3127 7.30712 9.97358 7.55717 9.72353C7.80722 9.47348 8.14636 9.33301 8.49998 9.33301H24.5C24.8536 9.33301 25.1927 9.47348 25.4428 9.72353C25.6928 9.97358 25.8333 10.3127 25.8333 10.6663C25.8333 11.02 25.6928 11.3591 25.4428 11.6091C25.1927 11.8592 24.8536 11.9997 24.5 11.9997Z" fill="white"/>
</svg>
