<svg width="17" height="16" viewBox="0 0 17 16" fill="none" xmlns="http://www.w3.org/2000/svg">
<path d="M11.4827 3.60522L12.8947 5.01655M12.3907 2.36188L8.57268 6.17988C8.3754 6.37688 8.24086 6.62787 8.18601 6.90122L7.83334 8.66655L9.59868 8.31322C9.87201 8.25855 10.1227 8.12455 10.32 7.92722L14.138 4.10922C14.2527 3.99449 14.3438 3.85828 14.4058 3.70838C14.4679 3.55847 14.4999 3.39781 14.4999 3.23555C14.4999 3.0733 14.4679 2.91263 14.4058 2.76273C14.3438 2.61282 14.2527 2.47662 14.138 2.36188C14.0233 2.24715 13.8871 2.15614 13.7372 2.09405C13.5873 2.03196 13.4266 2 13.2643 2C13.1021 2 12.9414 2.03196 12.7915 2.09405C12.6416 2.15614 12.5054 2.24715 12.3907 2.36188Z" stroke="white" stroke-width="1.5" stroke-linecap="round" stroke-linejoin="round"/>
<path d="M13.1667 9.99967V11.9997C13.1667 12.3533 13.0262 12.6924 12.7761 12.9425C12.5261 13.1925 12.187 13.333 11.8333 13.333H4.50001C4.14638 13.333 3.80724 13.1925 3.5572 12.9425C3.30715 12.6924 3.16667 12.3533 3.16667 11.9997V4.66634C3.16667 4.31272 3.30715 3.97358 3.5572 3.72353C3.80724 3.47348 4.14638 3.33301 4.50001 3.33301H6.50001" stroke="white" stroke-width="1.5" stroke-linecap="round" stroke-linejoin="round"/>
</svg>
