<svg width="33" height="32" viewBox="0 0 33 32" fill="none" xmlns="http://www.w3.org/2000/svg">
<path d="M30.2075 14.7073L20.2075 24.7073C20.0676 24.8473 19.8894 24.9427 19.6953 24.9813C19.5012 25.02 19.3 25.0002 19.1172 24.9244C18.9344 24.8487 18.7781 24.7204 18.6683 24.5558C18.5584 24.3912 18.4998 24.1977 18.5 23.9998V19.0286C11.3625 19.4336 6.46873 24.0623 5.09498 25.5286C4.87927 25.7589 4.5964 25.9154 4.28661 25.9757C3.97683 26.036 3.65592 25.997 3.36956 25.8644C3.08319 25.7317 2.84597 25.5121 2.69164 25.2368C2.53731 24.9615 2.47374 24.6446 2.50999 24.3311C2.97374 20.2986 5.18248 16.4198 8.72998 13.4098C11.6762 10.9098 15.2575 9.32356 18.5 9.04606V3.99981C18.4998 3.80192 18.5584 3.60842 18.6683 3.44383C18.7781 3.27923 18.9344 3.15094 19.1172 3.07519C19.3 2.99944 19.5012 2.97963 19.6953 3.01828C19.8894 3.05693 20.0676 3.1523 20.2075 3.29231L30.2075 13.2923C30.3005 13.3852 30.3742 13.4955 30.4245 13.6169C30.4749 13.7383 30.5008 13.8684 30.5008 13.9998C30.5008 14.1312 30.4749 14.2614 30.4245 14.3828C30.3742 14.5041 30.3005 14.6144 30.2075 14.7073Z" fill="white"/>
</svg>
