<svg width="42" height="42" viewBox="0 0 42 42" fill="none" xmlns="http://www.w3.org/2000/svg">
<g filter="url(#filter0_dd_2595_12414)">
<path d="M27 10H15C13.6744 10.0016 12.4036 10.5289 11.4662 11.4662C10.5289 12.4036 10.0016 13.6744 10 15V23C10.0015 24.1522 10.4001 25.2687 11.1287 26.1613C11.8573 27.0538 12.8714 27.6679 14 27.9V31C14 31.181 14.0491 31.3587 14.1421 31.514C14.2352 31.6693 14.3686 31.7965 14.5282 31.8819C14.6879 31.9673 14.8677 32.0078 15.0485 31.999C15.2293 31.9902 15.4044 31.9325 15.555 31.832L21.3 28H27C28.3256 27.9984 29.5964 27.4711 30.5338 26.5338C31.4711 25.5964 31.9984 24.3256 32 23V15C31.9984 13.6744 31.4711 12.4036 30.5338 11.4662C29.5964 10.5289 28.3256 10.0016 27 10ZM25 22H17C16.7348 22 16.4804 21.8946 16.2929 21.7071C16.1054 21.5196 16 21.2652 16 21C16 20.7348 16.1054 20.4804 16.2929 20.2929C16.4804 20.1054 16.7348 20 17 20H25C25.2652 20 25.5196 20.1054 25.7071 20.2929C25.8946 20.4804 26 20.7348 26 21C26 21.2652 25.8946 21.5196 25.7071 21.7071C25.5196 21.8946 25.2652 22 25 22ZM27 18H15C14.7348 18 14.4804 17.8946 14.2929 17.7071C14.1054 17.5196 14 17.2652 14 17C14 16.7348 14.1054 16.4804 14.2929 16.2929C14.4804 16.1054 14.7348 16 15 16H27C27.2652 16 27.5196 16.1054 27.7071 16.2929C27.8946 16.4804 28 16.7348 28 17C28 17.2652 27.8946 17.5196 27.7071 17.7071C27.5196 17.8946 27.2652 18 27 18Z" fill="white"/>
</g>
<defs>
<filter id="filter0_dd_2595_12414" x="0" y="0" width="42" height="42" filterUnits="userSpaceOnUse" color-interpolation-filters="sRGB">
<feFlood flood-opacity="0" result="BackgroundImageFix"/>
<feColorMatrix in="SourceAlpha" type="matrix" values="0 0 0 0 0 0 0 0 0 0 0 0 0 0 0 0 0 0 127 0" result="hardAlpha"/>
<feOffset dx="2" dy="2"/>
<feGaussianBlur stdDeviation="4"/>
<feComposite in2="hardAlpha" operator="out"/>
<feColorMatrix type="matrix" values="0 0 0 0 0 0 0 0 0 0 0 0 0 0 0 0 0 0 0.15 0"/>
<feBlend mode="normal" in2="BackgroundImageFix" result="effect1_dropShadow_2595_12414"/>
<feColorMatrix in="SourceAlpha" type="matrix" values="0 0 0 0 0 0 0 0 0 0 0 0 0 0 0 0 0 0 127 0" result="hardAlpha"/>
<feOffset dx="-2" dy="-2"/>
<feGaussianBlur stdDeviation="4"/>
<feComposite in2="hardAlpha" operator="out"/>
<feColorMatrix type="matrix" values="0 0 0 0 0 0 0 0 0 0 0 0 0 0 0 0 0 0 0.15 0"/>
<feBlend mode="normal" in2="effect1_dropShadow_2595_12414" result="effect2_dropShadow_2595_12414"/>
<feBlend mode="normal" in="SourceGraphic" in2="effect2_dropShadow_2595_12414" result="shape"/>
</filter>
</defs>
</svg>
