<svg width="39" height="35" viewBox="0 0 39 35" fill="none" xmlns="http://www.w3.org/2000/svg">
<g filter="url(#filter0_dd_2595_12680)">
<path fill-rule="evenodd" clip-rule="evenodd" d="M19.035 11.2129C19.2127 11.2841 19.3646 11.4045 19.4714 11.5591C19.5783 11.7136 19.6353 11.8952 19.6352 12.081V23.354C19.6352 23.5398 19.5781 23.7213 19.4712 23.8758C19.3643 24.0302 19.2124 24.1506 19.0346 24.2217C18.8569 24.2928 18.6614 24.3114 18.4727 24.2752C18.284 24.2389 18.1107 24.1495 17.9746 24.0182L14.3685 20.5357H11.8528C11.5948 20.5357 11.3474 20.4368 11.1649 20.2606C10.9825 20.0844 10.88 19.8455 10.88 19.5963V15.8386C10.88 15.5895 10.9825 15.3505 11.1649 15.1744C11.3474 14.9982 11.5948 14.8992 11.8528 14.8992H14.3685L17.9746 11.4168C18.1107 11.2853 18.284 11.1958 18.4728 11.1595C18.6615 11.1232 18.8572 11.1418 19.035 11.2129ZM24.1655 11.0749C24.348 10.8987 24.5953 10.7998 24.8533 10.7998C25.1112 10.7998 25.3586 10.8987 25.5411 11.0749C26.4456 11.9463 27.163 12.9817 27.6519 14.1217C28.1409 15.2616 28.3919 16.4836 28.3904 17.7175C28.3919 18.9513 28.1409 20.1733 27.6519 21.3133C27.163 22.4532 26.4456 23.4886 25.5411 24.3601C25.3576 24.5312 25.1119 24.6259 24.8568 24.6238C24.6017 24.6216 24.3577 24.5228 24.1774 24.3487C23.997 24.1745 23.8947 23.9389 23.8925 23.6926C23.8903 23.4462 23.9883 23.2089 24.1655 23.0318C24.8894 22.3348 25.4635 21.5064 25.8546 20.5944C26.2458 19.6824 26.4464 18.7046 26.4448 17.7175C26.4464 16.7303 26.2459 15.7526 25.8547 14.8405C25.4636 13.9285 24.8895 13.1002 24.1655 12.4032C23.9832 12.227 23.8807 11.9881 23.8807 11.739C23.8807 11.4899 23.9832 11.251 24.1655 11.0749ZM21.4135 13.7315C21.5038 13.6442 21.6111 13.5749 21.7292 13.5276C21.8473 13.4803 21.9739 13.456 22.1017 13.456C22.2296 13.456 22.3562 13.4803 22.4743 13.5276C22.5924 13.5749 22.6996 13.6442 22.79 13.7315C23.3327 14.2545 23.7631 14.8758 24.0564 15.5598C24.3497 16.2439 24.5002 16.9771 24.4992 17.7175C24.5001 18.4578 24.3496 19.1911 24.0563 19.8751C23.763 20.5591 23.3327 21.1805 22.79 21.7034C22.6075 21.8797 22.3599 21.9787 22.1017 21.9787C21.8436 21.9787 21.596 21.8797 21.4135 21.7034C21.2309 21.5272 21.1284 21.2881 21.1284 21.0388C21.1284 20.7895 21.2309 20.5504 21.4135 20.3742C21.7755 20.0258 22.0626 19.6117 22.2583 19.1558C22.454 18.6998 22.5543 18.211 22.5536 17.7175C22.5544 17.2239 22.4541 16.7351 22.2584 16.2791C22.0627 15.8232 21.7756 15.4091 21.4135 15.0608C21.323 14.9736 21.2513 14.8699 21.2023 14.7559C21.1534 14.6419 21.1282 14.5196 21.1282 14.3962C21.1282 14.2727 21.1534 14.1505 21.2023 14.0364C21.2513 13.9224 21.323 13.8188 21.4135 13.7315Z" fill="white"/>
</g>
<defs>
<filter id="filter0_dd_2595_12680" x="0.880005" y="0.799805" width="37.5104" height="33.8242" filterUnits="userSpaceOnUse" color-interpolation-filters="sRGB">
<feFlood flood-opacity="0" result="BackgroundImageFix"/>
<feColorMatrix in="SourceAlpha" type="matrix" values="0 0 0 0 0 0 0 0 0 0 0 0 0 0 0 0 0 0 127 0" result="hardAlpha"/>
<feOffset dx="2" dy="2"/>
<feGaussianBlur stdDeviation="4"/>
<feComposite in2="hardAlpha" operator="out"/>
<feColorMatrix type="matrix" values="0 0 0 0 0 0 0 0 0 0 0 0 0 0 0 0 0 0 0.15 0"/>
<feBlend mode="normal" in2="BackgroundImageFix" result="effect1_dropShadow_2595_12680"/>
<feColorMatrix in="SourceAlpha" type="matrix" values="0 0 0 0 0 0 0 0 0 0 0 0 0 0 0 0 0 0 127 0" result="hardAlpha"/>
<feOffset dx="-2" dy="-2"/>
<feGaussianBlur stdDeviation="4"/>
<feComposite in2="hardAlpha" operator="out"/>
<feColorMatrix type="matrix" values="0 0 0 0 0 0 0 0 0 0 0 0 0 0 0 0 0 0 0.15 0"/>
<feBlend mode="normal" in2="effect1_dropShadow_2595_12680" result="effect2_dropShadow_2595_12680"/>
<feBlend mode="normal" in="SourceGraphic" in2="effect2_dropShadow_2595_12680" result="shape"/>
</filter>
</defs>
</svg>
