<svg width="42" height="38" viewBox="0 0 42 38" fill="none" xmlns="http://www.w3.org/2000/svg">
<g filter="url(#filter0_dd_2595_11269)">
<path d="M31.5 15.8125C31.5 22.375 21.7697 27.6869 21.3553 27.9062C21.2461 27.965 21.124 27.9958 21 27.9958C20.876 27.9958 20.7539 27.965 20.6447 27.9062C20.2303 27.6869 10.5 22.375 10.5 15.8125C10.5017 14.2715 11.1147 12.794 12.2044 11.7044C13.294 10.6147 14.7715 10.0017 16.3125 10C18.2484 10 19.9434 10.8325 21 12.2397C22.0566 10.8325 23.7516 10 25.6875 10C27.2285 10.0017 28.706 10.6147 29.7956 11.7044C30.8853 12.794 31.4983 14.2715 31.5 15.8125Z" fill="white"/>
</g>
<defs>
<filter id="filter0_dd_2595_11269" x="0.5" y="0" width="41" height="37.9961" filterUnits="userSpaceOnUse" color-interpolation-filters="sRGB">
<feFlood flood-opacity="0" result="BackgroundImageFix"/>
<feColorMatrix in="SourceAlpha" type="matrix" values="0 0 0 0 0 0 0 0 0 0 0 0 0 0 0 0 0 0 127 0" result="hardAlpha"/>
<feOffset dx="2" dy="2"/>
<feGaussianBlur stdDeviation="4"/>
<feComposite in2="hardAlpha" operator="out"/>
<feColorMatrix type="matrix" values="0 0 0 0 0 0 0 0 0 0 0 0 0 0 0 0 0 0 0.15 0"/>
<feBlend mode="normal" in2="BackgroundImageFix" result="effect1_dropShadow_2595_11269"/>
<feColorMatrix in="SourceAlpha" type="matrix" values="0 0 0 0 0 0 0 0 0 0 0 0 0 0 0 0 0 0 127 0" result="hardAlpha"/>
<feOffset dx="-2" dy="-2"/>
<feGaussianBlur stdDeviation="4"/>
<feComposite in2="hardAlpha" operator="out"/>
<feColorMatrix type="matrix" values="0 0 0 0 0 0 0 0 0 0 0 0 0 0 0 0 0 0 0.15 0"/>
<feBlend mode="normal" in2="effect1_dropShadow_2595_11269" result="effect2_dropShadow_2595_11269"/>
<feBlend mode="normal" in="SourceGraphic" in2="effect2_dropShadow_2595_11269" result="shape"/>
</filter>
</defs>
</svg>
