<svg width="25" height="24" viewBox="0 0 25 24" fill="none" xmlns="http://www.w3.org/2000/svg">
<path fill-rule="evenodd" clip-rule="evenodd" d="M11.0488 2.3397C10.7185 2.56238 10.4622 2.87864 10.3128 3.24792C7.34682 4.05992 5.16682 6.77592 5.16682 9.99992V14.6969L3.33482 17.4449C3.23434 17.5955 3.17663 17.7706 3.16785 17.9514C3.15907 18.1322 3.19954 18.3121 3.28495 18.4717C3.37036 18.6313 3.4975 18.7648 3.65281 18.8578C3.80812 18.9508 3.98578 19 4.16682 18.9999H8.70182C8.82223 19.833 9.23876 20.5949 9.87512 21.1459C10.5115 21.6969 11.3251 22.0001 12.1668 22.0001C13.0086 22.0001 13.8222 21.6969 14.4585 21.1459C15.0949 20.5949 15.5114 19.833 15.6318 18.9999H20.1668C20.3479 19 20.5255 18.9508 20.6808 18.8578C20.8361 18.7648 20.9633 18.6313 21.0487 18.4717C21.1341 18.3121 21.1746 18.1322 21.1658 17.9514C21.157 17.7706 21.0993 17.5955 20.9988 17.4449L19.1668 14.6969V9.99992C19.1668 8.46627 18.6632 6.97504 17.7336 5.75526C16.8039 4.53548 15.4996 3.65461 14.0208 3.24792C13.8714 2.87864 13.6151 2.56238 13.2848 2.3397C12.9545 2.11701 12.5652 1.99805 12.1668 1.99805C11.7685 1.99805 11.3792 2.11701 11.0488 2.3397Z" fill="white"/>
</svg>
