<svg width="25" height="24" viewBox="0 0 25 24" fill="none" xmlns="http://www.w3.org/2000/svg">
<g clip-path="url(#clip0_2484_10835)">
<path d="M10.3127 3.24792C10.4621 2.87864 10.7184 2.56238 11.0487 2.3397C11.379 2.11701 11.7683 1.99805 12.1667 1.99805C12.565 1.99805 12.9543 2.11701 13.2846 2.3397C13.615 2.56238 13.8713 2.87864 14.0207 3.24792C15.4994 3.65461 16.8038 4.53548 17.7334 5.75526C18.6631 6.97504 19.1666 8.46627 19.1667 9.99992V14.6969L20.9987 17.4449C21.0991 17.5955 21.1569 17.7706 21.1656 17.9514C21.1744 18.1322 21.134 18.3121 21.0485 18.4717C20.9631 18.6313 20.836 18.7648 20.6807 18.8578C20.5254 18.9508 20.3477 19 20.1667 18.9999H15.6317C15.5113 19.833 15.0947 20.5949 14.4584 21.1459C13.822 21.6969 13.0084 22.0001 12.1667 22.0001C11.3249 22.0001 10.5113 21.6969 9.87497 21.1459C9.23861 20.5949 8.82207 19.833 8.70167 18.9999H4.16667C3.98563 19 3.80797 18.9508 3.65266 18.8578C3.49735 18.7648 3.3702 18.6313 3.28479 18.4717C3.19939 18.3121 3.15891 18.1322 3.1677 17.9514C3.17648 17.7706 3.23419 17.5955 3.33467 17.4449L5.16667 14.6969V9.99992C5.16667 6.77592 7.34667 4.05992 10.3127 3.24792ZM10.7527 18.9999C10.8559 19.2926 11.0475 19.546 11.3008 19.7252C11.5541 19.9045 11.8568 20.0007 12.1672 20.0007C12.4775 20.0007 12.7802 19.9045 13.0335 19.7252C13.2869 19.546 13.4784 19.2926 13.5817 18.9999H10.7517H10.7527ZM12.1667 4.99992C10.8406 4.99992 9.56882 5.52671 8.63113 6.46439C7.69345 7.40207 7.16667 8.67384 7.16667 9.99992V14.9999C7.16671 15.1975 7.10825 15.3906 6.99867 15.5549L6.03567 16.9999H18.2967L17.3337 15.5549C17.2244 15.3905 17.1663 15.1974 17.1667 14.9999V9.99992C17.1667 8.67384 16.6399 7.40207 15.7022 6.46439C14.7645 5.52671 13.4928 4.99992 12.1667 4.99992Z" fill="white" fill-opacity="0.4"/>
<circle cx="21.1667" cy="3" r="3" fill="#EC2227"/>
</g>
<defs>
<clipPath id="clip0_2484_10835">
<rect width="24" height="24" fill="white" transform="translate(0.166672)"/>
</clipPath>
</defs>
</svg>
