<svg width="25" height="24" viewBox="0 0 25 24" fill="none" xmlns="http://www.w3.org/2000/svg">
<path d="M11.272 2.68804C11.6 2.43283 11.9994 2.28617 12.4147 2.26843C12.8299 2.25068 13.2404 2.36275 13.589 2.58904L13.728 2.68904L22.112 9.20904C22.833 9.77004 22.482 10.901 21.613 10.994L21.497 11H20.5V19C20.5002 19.5046 20.3096 19.9906 19.9665 20.3606C19.6234 20.7306 19.1532 20.9572 18.65 20.995L18.5 21H6.5C5.99559 20.9999 5.50985 20.8093 5.14008 20.4662C4.77031 20.1231 4.54383 19.653 4.506 19.15L4.5 19V11H3.503C2.59 11 2.171 9.89204 2.8 9.28504L2.888 9.20904L11.272 2.68804ZM12.5 4.26704L6.125 9.22504C6.354 9.41004 6.5 9.69304 6.5 10.01V19H9.5V14C9.5 13.2044 9.81607 12.4413 10.3787 11.8787C10.9413 11.3161 11.7043 11 12.5 11C13.2956 11 14.0587 11.3161 14.6213 11.8787C15.1839 12.4413 15.5 13.2044 15.5 14V19H18.5V10.01C18.5 9.69304 18.646 9.41004 18.875 9.22504L12.5 4.26704ZM12.5 13C12.2348 13 11.9804 13.1054 11.7929 13.2929C11.6054 13.4805 11.5 13.7348 11.5 14V19H13.5V14C13.5 13.7348 13.3946 13.4805 13.2071 13.2929C13.0196 13.1054 12.7652 13 12.5 13Z" fill="white"/>
</svg>
