<svg width="25" height="24" viewBox="0 0 25 24" fill="none" xmlns="http://www.w3.org/2000/svg">
<path d="M13.728 2.68799C13.3769 2.41488 12.9448 2.2666 12.5 2.2666C12.0552 2.2666 11.6231 2.41488 11.272 2.68799L2.88801 9.20799C2.13601 9.79499 2.55001 11 3.50301 11H4.50001V19C4.50001 19.5304 4.71073 20.0391 5.0858 20.4142C5.46087 20.7893 5.96958 21 6.50001 21H10.5V15C10.5 14.4696 10.7107 13.9608 11.0858 13.5858C11.4609 13.2107 11.9696 13 12.5 13C13.0304 13 13.5392 13.2107 13.9142 13.5858C14.2893 13.9608 14.5 14.4696 14.5 15V21H18.5C19.0304 21 19.5392 20.7893 19.9142 20.4142C20.2893 20.0391 20.5 19.5304 20.5 19V11H21.497C22.449 11 22.865 9.79499 22.112 9.20899L13.728 2.68799Z" fill="white"/>
</svg>
