<svg width="25" height="24" viewBox="0 0 25 24" fill="none" xmlns="http://www.w3.org/2000/svg">
<path d="M12.8333 19.9611C13.3702 19.6638 15.5877 18.386 17.7576 16.4858C20.2125 14.3359 22.3328 11.6265 22.3333 8.81363L12.8333 19.9611ZM12.8333 19.9611C12.2965 19.6638 10.079 18.386 7.90912 16.4858C5.45407 14.3357 3.33362 11.6262 3.33334 8.81305C3.33493 7.53705 3.84253 6.31375 4.74481 5.41147C5.64709 4.50918 6.87039 4.00159 8.1464 4C9.78986 4.00016 11.1791 4.70195 12.0337 5.84011L12.8333 6.90517L13.633 5.84011C14.4876 4.70195 15.8768 4.00016 17.5203 4C18.7963 4.00159 20.0196 4.50918 20.9219 5.41147L21.6034 4.72992L20.9219 5.41147C21.8243 6.31387 22.3319 7.53736 22.3333 8.81354L12.8333 19.9611Z" stroke="white" stroke-width="2"/>
</svg>
